<svg xmlns="http://www.w3.org/2000/svg" width="960" height="640" viewBox="0 0 960 640"><defs><linearGradient id="bg" x2="1" y2="1"><stop stop-color="#fafafa"/><stop offset="1" stop-color="#efe8e9"/></linearGradient><linearGradient id="dark" x2="1" y2="1"><stop stop-color="#35383e"/><stop offset="1" stop-color="#15171b"/></linearGradient><filter id="shadow" x="-30%" y="-30%" width="160%" height="180%"><feDropShadow dx="0" dy="18" stdDeviation="18" flood-color="#302026" flood-opacity=".15"/></filter></defs><rect width="960" height="640" rx="28" fill="url(#bg)"/><circle cx="790" cy="100" r="180" fill="#d9232e" opacity=".045"/><ellipse cx="480" cy="560" rx="320" ry="25" fill="#292029" opacity=".06"/><g filter="url(#shadow)"><rect x="230" y="105" width="360" height="430" rx="26" fill="#fff" /><rect x="263" y="142" width="294" height="94" rx="12" fill="#20272b" /><path d="M410 160l28 12v19c0 17-28 29-28 29s-28-12-28-29v-19z" fill="none" stroke="#77cfab" stroke-width="4"/><rect x="273" y="265" width="78" height="48" rx="9" fill="#f0f1f3" /><circle cx="312" cy="289" r="5" fill="#727781"/><rect x="371" y="265" width="78" height="48" rx="9" fill="#f0f1f3" /><circle cx="410" cy="289" r="5" fill="#727781"/><rect x="469" y="265" width="78" height="48" rx="9" fill="#f0f1f3" /><circle cx="508" cy="289" r="5" fill="#727781"/><rect x="273" y="333" width="78" height="48" rx="9" fill="#f0f1f3" /><circle cx="312" cy="357" r="5" fill="#727781"/><rect x="371" y="333" width="78" height="48" rx="9" fill="#f0f1f3" /><circle cx="410" cy="357" r="5" fill="#727781"/><rect x="469" y="333" width="78" height="48" rx="9" fill="#f0f1f3" /><circle cx="508" cy="357" r="5" fill="#727781"/><rect x="273" y="401" width="78" height="48" rx="9" fill="#f0f1f3" /><circle cx="312" cy="425" r="5" fill="#727781"/><rect x="371" y="401" width="78" height="48" rx="9" fill="#f0f1f3" /><circle cx="410" cy="425" r="5" fill="#727781"/><rect x="469" y="401" width="78" height="48" rx="9" fill="#f0f1f3" /><circle cx="508" cy="425" r="5" fill="#727781"/><rect x="273" y="473" width="274" height="25" rx="8" fill="#d9232e" /><rect x="665" y="168" width="66" height="223" rx="14" fill="#fff" /><rect x="744" y="168" width="30" height="223" rx="9" fill="#e2e3e6" /><circle cx="698" cy="190" r="5" fill="#d9232e"/></g></svg>